{
	"asset":{
		"generator":"Khronos glTF Blender I/O v3.5.30",
		"version":"2.0"
	},
	"scene":0,
	"scenes":[
		{
			"name":"Scene",
			"nodes":[
				0
			]
		}
	],
	"nodes":[
		{
			"mesh":0,
			"name":"Tank",
			"translation":[
				0,
				3.562232494354248,
				0
			]
		}
	],
	"meshes":[
		{
			"name":"Cube.001",
			"primitives":[
				{
					"attributes":{
						"POSITION":0,
						"TEXCOORD_0":1,
						"NORMAL":2
					},
					"indices":3
				}
			]
		}
	],
	"accessors":[
		{
			"bufferView":0,
			"componentType":5126,
			"count":738,
			"max":[
				7.961673259735107,
				13.321924209594727,
				2.890493392944336
			],
			"min":[
				-7.961673259735107,
				-13.321924209594727,
				-2.890493392944336
			],
			"type":"VEC3"
		},
		{
			"bufferView":1,
			"componentType":5126,
			"count":738,
			"type":"VEC2"
		},
		{
			"bufferView":2,
			"componentType":5126,
			"count":738,
			"type":"VEC3"
		},
		{
			"bufferView":3,
			"componentType":5123,
			"count":1224,
			"type":"SCALAR"
		}
	],
	"bufferViews":[
		{
			"buffer":0,
			"byteLength":8856,
			"byteOffset":0,
			"target":34962
		},
		{
			"buffer":0,
			"byteLength":5904,
			"byteOffset":8856,
			"target":34962
		},
		{
			"buffer":0,
			"byteLength":8856,
			"byteOffset":14760,
			"target":34962
		},
		{
			"buffer":0,
			"byteLength":2448,
			"byteOffset":23616,
			"target":34963
		}
	],
	"buffers":[
		{
			"byteLength":26064,
			"uri":"data:application/octet-stream;base64,"
		}
	]
}
