{
	"asset":{
		"generator":"Khronos glTF Blender I/O v3.5.30",
		"version":"2.0"
	},
	"extensionsUsed":[
		"KHR_materials_specular",
		"KHR_materials_ior",
		"KHR_materials_transmission"
	],
	"scene":0,
	"scenes":[
		{
			"name":"Scene",
			"nodes":[
				0,
				1,
				2,
				3,
				4,
				15
			]
		}
	],
	"nodes":[
		{
			"mesh":0,
			"name":"Top",
			"translation":[
				0,
				14,
				0
			]
		},
		{
			"mesh":1,
			"name":"Base",
			"rotation":[
				-1,
				0,
				0,
				1.6292068494294654e-07
			],
			"translation":[
				0,
				-14,
				0
			]
		},
		{
			"mesh":2,
			"name":"Button",
			"rotation":[
				0.7071068286895752,
				0,
				0,
				0.7071068286895752
			],
			"translation":[
				7,
				-15,
				3
			]
		},
		{
			"mesh":3,
			"name":"Tank"
		},
		{
			"mesh":2,
			"name":"Button.001",
			"rotation":[
				0.7071068286895752,
				0,
				0,
				0.7071068286895752
			],
			"translation":[
				-7,
				-15,
				3
			]
		},
		{
			"mesh":4,
			"name":"Cube",
			"scale":[
				12,
				2,
				1
			],
			"translation":[
				0,
				0,
				-4
			]
		},
		{
			"mesh":5,
			"name":"Cube.001",
			"scale":[
				12,
				16,
				1
			],
			"translation":[
				0,
				0,
				-4
			]
		},
		{
			"mesh":6,
			"name":"Cube.002",
			"scale":[
				12,
				16,
				1
			],
			"translation":[
				0,
				0,
				4
			]
		},
		{
			"mesh":7,
			"name":"Cube.003",
			"rotation":[
				0,
				-0.7071067094802856,
				0,
				0.7071068286895752
			],
			"scale":[
				5,
				16,
				1
			],
			"translation":[
				11,
				0,
				0
			]
		},
		{
			"mesh":8,
			"name":"Cube.004",
			"rotation":[
				0,
				-0.7071067094802856,
				0,
				0.7071068286895752
			],
			"scale":[
				5,
				16,
				1
			],
			"translation":[
				-11,
				0,
				0
			]
		},
		{
			"mesh":9,
			"name":"Cube.005",
			"rotation":[
				-0.5,
				-0.4999999701976776,
				-0.5,
				0.5000000596046448
			],
			"scale":[
				5,
				12,
				1
			],
			"translation":[
				0,
				15,
				0
			]
		},
		{
			"mesh":10,
			"name":"Cube.006",
			"rotation":[
				-0.5,
				-0.4999999701976776,
				-0.5,
				0.5000000596046448
			],
			"scale":[
				5,
				12,
				1
			],
			"translation":[
				0,
				-15,
				0
			]
		},
		{
			"mesh":11,
			"name":"Cube.007",
			"rotation":[
				0.6532814502716064,
				-0.27059829235076904,
				0.6532813906669617,
				0.2705981433391571
			],
			"scale":[
				5,
				2,
				2
			],
			"translation":[
				10,
				5,
				0
			]
		},
		{
			"mesh":12,
			"name":"Cube.008",
			"rotation":[
				0.6532814502716064,
				-0.27059829235076904,
				0.6532813906669617,
				0.2705981433391571
			],
			"scale":[
				5,
				2,
				2
			],
			"translation":[
				-10,
				5,
				0
			]
		},
		{
			"mesh":13,
			"name":"Cube.009",
			"rotation":[
				0.6532814502716064,
				-0.27059829235076904,
				0.6532813906669617,
				0.2705981433391571
			],
			"scale":[
				5,
				4,
				4
			],
			"translation":[
				0,
				-14,
				0
			]
		},
		{
			"children":[
				5,
				6,
				7,
				8,
				9,
				10,
				11,
				12,
				13,
				14
			],
			"name":"Physics"
		}
	],
	"materials":[
		{
			"doubleSided":true,
			"extensions":{
				"KHR_materials_specular":{
					"specularColorFactor":[
						1.910260363341761,
						1.910260363341761,
						1.910260363341761
					]
				},
				"KHR_materials_ior":{
					"ior":1.4500000476837158
				}
			},
			"name":"Plastic",
			"pbrMetallicRoughness":{
				"baseColorFactor":[
					0.4200282096862793,
					0.0032314984127879143,
					0.03300335630774498,
					1
				],
				"metallicFactor":0.20370370149612427,
				"roughnessFactor":0.8148148059844971
			}
		},
		{
			"doubleSided":true,
			"name":"white plastic",
			"pbrMetallicRoughness":{
				"baseColorFactor":[
					0.800000011920929,
					0.800000011920929,
					0.800000011920929,
					1
				],
				"metallicFactor":0.10185185074806213,
				"roughnessFactor":0.7592592239379883
			}
		},
		{
			"alphaMode":"BLEND",
			"doubleSided":true,
			"extensions":{
				"KHR_materials_transmission":{
					"transmissionFactor":0.8981481194496155
				},
				"KHR_materials_specular":{
					"specularColorFactor":[
						0.9562935656408935,
						0.9562935656408935,
						0.9562935656408935
					]
				},
				"KHR_materials_ior":{
					"ior":1.4500000476837158
				}
			},
			"name":"glass",
			"pbrMetallicRoughness":{
				"baseColorFactor":[
					0.800000011920929,
					0.800000011920929,
					0.800000011920929,
					0.5277777910232544
				],
				"metallicFactor":0.4444444477558136,
				"roughnessFactor":0.1944444477558136
			}
		}
	],
	"meshes":[
		{
			"name":"Cube.002",
			"primitives":[
				{
					"attributes":{
						"POSITION":0,
						"TEXCOORD_0":1,
						"NORMAL":2
					},
					"indices":3,
					"material":0
				}
			]
		},
		{
			"name":"Cube.004",
			"primitives":[
				{
					"attributes":{
						"POSITION":4,
						"TEXCOORD_0":5,
						"NORMAL":6
					},
					"indices":3,
					"material":0
				}
			]
		},
		{
			"name":"Cylinder.006",
			"primitives":[
				{
					"attributes":{
						"POSITION":7,
						"TEXCOORD_0":8,
						"NORMAL":9
					},
					"indices":10,
					"material":1
				}
			]
		},
		{
			"name":"Cylinder.007",
			"primitives":[
				{
					"attributes":{
						"POSITION":11,
						"TEXCOORD_0":12,
						"NORMAL":13
					},
					"indices":14,
					"material":2
				}
			]
		},
		{
			"name":"Cube",
			"primitives":[
				{
					"attributes":{
						"POSITION":15,
						"TEXCOORD_0":16,
						"NORMAL":17
					},
					"indices":18
				}
			]
		},
		{
			"name":"Cube.001",
			"primitives":[
				{
					"attributes":{
						"POSITION":19,
						"TEXCOORD_0":20,
						"NORMAL":21
					},
					"indices":18
				}
			]
		},
		{
			"name":"Cube.003",
			"primitives":[
				{
					"attributes":{
						"POSITION":22,
						"TEXCOORD_0":23,
						"NORMAL":24
					},
					"indices":18
				}
			]
		},
		{
			"name":"Cube.005",
			"primitives":[
				{
					"attributes":{
						"POSITION":25,
						"TEXCOORD_0":26,
						"NORMAL":27
					},
					"indices":18
				}
			]
		},
		{
			"name":"Cube.006",
			"primitives":[
				{
					"attributes":{
						"POSITION":28,
						"TEXCOORD_0":29,
						"NORMAL":30
					},
					"indices":18
				}
			]
		},
		{
			"name":"Cube.007",
			"primitives":[
				{
					"attributes":{
						"POSITION":31,
						"TEXCOORD_0":32,
						"NORMAL":33
					},
					"indices":18
				}
			]
		},
		{
			"name":"Cube.008",
			"primitives":[
				{
					"attributes":{
						"POSITION":34,
						"TEXCOORD_0":35,
						"NORMAL":36
					},
					"indices":18
				}
			]
		},
		{
			"name":"Cube.009",
			"primitives":[
				{
					"attributes":{
						"POSITION":37,
						"TEXCOORD_0":38,
						"NORMAL":39
					},
					"indices":18
				}
			]
		},
		{
			"name":"Cube.010",
			"primitives":[
				{
					"attributes":{
						"POSITION":40,
						"TEXCOORD_0":41,
						"NORMAL":42
					},
					"indices":18
				}
			]
		},
		{
			"name":"Cube.011",
			"primitives":[
				{
					"attributes":{
						"POSITION":43,
						"TEXCOORD_0":44,
						"NORMAL":45
					},
					"indices":18
				}
			]
		}
	],
	"accessors":[
		{
			"bufferView":0,
			"componentType":5126,
			"count":2500,
			"max":[
				10.25,
				1.4000003337860107,
				3.25
			],
			"min":[
				-10.25,
				-1.4000003337860107,
				-3.25
			],
			"type":"VEC3"
		},
		{
			"bufferView":1,
			"componentType":5126,
			"count":2500,
			"type":"VEC2"
		},
		{
			"bufferView":2,
			"componentType":5126,
			"count":2500,
			"type":"VEC3"
		},
		{
			"bufferView":3,
			"componentType":5123,
			"count":3984,
			"type":"SCALAR"
		},
		{
			"bufferView":4,
			"componentType":5126,
			"count":2500,
			"max":[
				10.25,
				3.4000003337860107,
				3.25
			],
			"min":[
				-10.25,
				-1.4000003337860107,
				-3.250000476837158
			],
			"type":"VEC3"
		},
		{
			"bufferView":5,
			"componentType":5126,
			"count":2500,
			"type":"VEC2"
		},
		{
			"bufferView":6,
			"componentType":5126,
			"count":2500,
			"type":"VEC3"
		},
		{
			"bufferView":7,
			"componentType":5126,
			"count":216,
			"max":[
				1,
				1,
				1
			],
			"min":[
				-1,
				-1,
				-1
			],
			"type":"VEC3"
		},
		{
			"bufferView":8,
			"componentType":5126,
			"count":216,
			"type":"VEC2"
		},
		{
			"bufferView":9,
			"componentType":5126,
			"count":216,
			"type":"VEC3"
		},
		{
			"bufferView":10,
			"componentType":5123,
			"count":420,
			"type":"SCALAR"
		},
		{
			"bufferView":11,
			"componentType":5126,
			"count":13586,
			"max":[
				10,
				14,
				3.000000476837158
			],
			"min":[
				-10.000000953674316,
				-14,
				-3.0000007152557373
			],
			"type":"VEC3"
		},
		{
			"bufferView":12,
			"componentType":5126,
			"count":13586,
			"type":"VEC2"
		},
		{
			"bufferView":13,
			"componentType":5126,
			"count":13586,
			"type":"VEC3"
		},
		{
			"bufferView":14,
			"componentType":5123,
			"count":21096,
			"type":"SCALAR"
		},
		{
			"bufferView":15,
			"componentType":5126,
			"count":24,
			"max":[
				1,
				1,
				1
			],
			"min":[
				-1,
				-1,
				-1
			],
			"type":"VEC3"
		},
		{
			"bufferView":16,
			"componentType":5126,
			"count":24,
			"type":"VEC2"
		},
		{
			"bufferView":17,
			"componentType":5126,
			"count":24,
			"type":"VEC3"
		},
		{
			"bufferView":18,
			"componentType":5123,
			"count":36,
			"type":"SCALAR"
		},
		{
			"bufferView":19,
			"componentType":5126,
			"count":24,
			"max":[
				1,
				1,
				1
			],
			"min":[
				-1,
				-1,
				-1
			],
			"type":"VEC3"
		},
		{
			"bufferView":20,
			"componentType":5126,
			"count":24,
			"type":"VEC2"
		},
		{
			"bufferView":21,
			"componentType":5126,
			"count":24,
			"type":"VEC3"
		},
		{
			"bufferView":22,
			"componentType":5126,
			"count":24,
			"max":[
				1,
				1,
				1
			],
			"min":[
				-1,
				-1,
				-1
			],
			"type":"VEC3"
		},
		{
			"bufferView":23,
			"componentType":5126,
			"count":24,
			"type":"VEC2"
		},
		{
			"bufferView":24,
			"componentType":5126,
			"count":24,
			"type":"VEC3"
		},
		{
			"bufferView":25,
			"componentType":5126,
			"count":24,
			"max":[
				1,
				1,
				1
			],
			"min":[
				-1,
				-1,
				-1
			],
			"type":"VEC3"
		},
		{
			"bufferView":26,
			"componentType":5126,
			"count":24,
			"type":"VEC2"
		},
		{
			"bufferView":27,
			"componentType":5126,
			"count":24,
			"type":"VEC3"
		},
		{
			"bufferView":28,
			"componentType":5126,
			"count":24,
			"max":[
				1,
				1,
				1
			],
			"min":[
				-1,
				-1,
				-1
			],
			"type":"VEC3"
		},
		{
			"bufferView":29,
			"componentType":5126,
			"count":24,
			"type":"VEC2"
		},
		{
			"bufferView":30,
			"componentType":5126,
			"count":24,
			"type":"VEC3"
		},
		{
			"bufferView":31,
			"componentType":5126,
			"count":24,
			"max":[
				1,
				1,
				1
			],
			"min":[
				-1,
				-1,
				-1
			],
			"type":"VEC3"
		},
		{
			"bufferView":32,
			"componentType":5126,
			"count":24,
			"type":"VEC2"
		},
		{
			"bufferView":33,
			"componentType":5126,
			"count":24,
			"type":"VEC3"
		},
		{
			"bufferView":34,
			"componentType":5126,
			"count":24,
			"max":[
				1,
				1,
				1
			],
			"min":[
				-1,
				-1,
				-1
			],
			"type":"VEC3"
		},
		{
			"bufferView":35,
			"componentType":5126,
			"count":24,
			"type":"VEC2"
		},
		{
			"bufferView":36,
			"componentType":5126,
			"count":24,
			"type":"VEC3"
		},
		{
			"bufferView":37,
			"componentType":5126,
			"count":24,
			"max":[
				1,
				1,
				1
			],
			"min":[
				-1,
				-1,
				-1
			],
			"type":"VEC3"
		},
		{
			"bufferView":38,
			"componentType":5126,
			"count":24,
			"type":"VEC2"
		},
		{
			"bufferView":39,
			"componentType":5126,
			"count":24,
			"type":"VEC3"
		},
		{
			"bufferView":40,
			"componentType":5126,
			"count":24,
			"max":[
				1,
				1,
				1
			],
			"min":[
				-1,
				-1,
				-1
			],
			"type":"VEC3"
		},
		{
			"bufferView":41,
			"componentType":5126,
			"count":24,
			"type":"VEC2"
		},
		{
			"bufferView":42,
			"componentType":5126,
			"count":24,
			"type":"VEC3"
		},
		{
			"bufferView":43,
			"componentType":5126,
			"count":24,
			"max":[
				1,
				1,
				1
			],
			"min":[
				-1,
				-1,
				-1
			],
			"type":"VEC3"
		},
		{
			"bufferView":44,
			"componentType":5126,
			"count":24,
			"type":"VEC2"
		},
		{
			"bufferView":45,
			"componentType":5126,
			"count":24,
			"type":"VEC3"
		}
	],
	"bufferViews":[
		{
			"buffer":0,
			"byteLength":30000,
			"byteOffset":0,
			"target":34962
		},
		{
			"buffer":0,
			"byteLength":20000,
			"byteOffset":30000,
			"target":34962
		},
		{
			"buffer":0,
			"byteLength":30000,
			"byteOffset":50000,
			"target":34962
		},
		{
			"buffer":0,
			"byteLength":7968,
			"byteOffset":80000,
			"target":34963
		},
		{
			"buffer":0,
			"byteLength":30000,
			"byteOffset":87968,
			"target":34962
		},
		{
			"buffer":0,
			"byteLength":20000,
			"byteOffset":117968,
			"target":34962
		},
		{
			"buffer":0,
			"byteLength":30000,
			"byteOffset":137968,
			"target":34962
		},
		{
			"buffer":0,
			"byteLength":2592,
			"byteOffset":167968,
			"target":34962
		},
		{
			"buffer":0,
			"byteLength":1728,
			"byteOffset":170560,
			"target":34962
		},
		{
			"buffer":0,
			"byteLength":2592,
			"byteOffset":172288,
			"target":34962
		},
		{
			"buffer":0,
			"byteLength":840,
			"byteOffset":174880,
			"target":34963
		},
		{
			"buffer":0,
			"byteLength":163032,
			"byteOffset":175720,
			"target":34962
		},
		{
			"buffer":0,
			"byteLength":108688,
			"byteOffset":338752,
			"target":34962
		},
		{
			"buffer":0,
			"byteLength":163032,
			"byteOffset":447440,
			"target":34962
		},
		{
			"buffer":0,
			"byteLength":42192,
			"byteOffset":610472,
			"target":34963
		},
		{
			"buffer":0,
			"byteLength":288,
			"byteOffset":652664,
			"target":34962
		},
		{
			"buffer":0,
			"byteLength":192,
			"byteOffset":652952,
			"target":34962
		},
		{
			"buffer":0,
			"byteLength":288,
			"byteOffset":653144,
			"target":34962
		},
		{
			"buffer":0,
			"byteLength":72,
			"byteOffset":653432,
			"target":34963
		},
		{
			"buffer":0,
			"byteLength":288,
			"byteOffset":653504,
			"target":34962
		},
		{
			"buffer":0,
			"byteLength":192,
			"byteOffset":653792,
			"target":34962
		},
		{
			"buffer":0,
			"byteLength":288,
			"byteOffset":653984,
			"target":34962
		},
		{
			"buffer":0,
			"byteLength":288,
			"byteOffset":654272,
			"target":34962
		},
		{
			"buffer":0,
			"byteLength":192,
			"byteOffset":654560,
			"target":34962
		},
		{
			"buffer":0,
			"byteLength":288,
			"byteOffset":654752,
			"target":34962
		},
		{
			"buffer":0,
			"byteLength":288,
			"byteOffset":655040,
			"target":34962
		},
		{
			"buffer":0,
			"byteLength":192,
			"byteOffset":655328,
			"target":34962
		},
		{
			"buffer":0,
			"byteLength":288,
			"byteOffset":655520,
			"target":34962
		},
		{
			"buffer":0,
			"byteLength":288,
			"byteOffset":655808,
			"target":34962
		},
		{
			"buffer":0,
			"byteLength":192,
			"byteOffset":656096,
			"target":34962
		},
		{
			"buffer":0,
			"byteLength":288,
			"byteOffset":656288,
			"target":34962
		},
		{
			"buffer":0,
			"byteLength":288,
			"byteOffset":656576,
			"target":34962
		},
		{
			"buffer":0,
			"byteLength":192,
			"byteOffset":656864,
			"target":34962
		},
		{
			"buffer":0,
			"byteLength":288,
			"byteOffset":657056,
			"target":34962
		},
		{
			"buffer":0,
			"byteLength":288,
			"byteOffset":657344,
			"target":34962
		},
		{
			"buffer":0,
			"byteLength":192,
			"byteOffset":657632,
			"target":34962
		},
		{
			"buffer":0,
			"byteLength":288,
			"byteOffset":657824,
			"target":34962
		},
		{
			"buffer":0,
			"byteLength":288,
			"byteOffset":658112,
			"target":34962
		},
		{
			"buffer":0,
			"byteLength":192,
			"byteOffset":658400,
			"target":34962
		},
		{
			"buffer":0,
			"byteLength":288,
			"byteOffset":658592,
			"target":34962
		},
		{
			"buffer":0,
			"byteLength":288,
			"byteOffset":658880,
			"target":34962
		},
		{
			"buffer":0,
			"byteLength":192,
			"byteOffset":659168,
			"target":34962
		},
		{
			"buffer":0,
			"byteLength":288,
			"byteOffset":659360,
			"target":34962
		},
		{
			"buffer":0,
			"byteLength":288,
			"byteOffset":659648,
			"target":34962
		},
		{
			"buffer":0,
			"byteLength":192,
			"byteOffset":659936,
			"target":34962
		},
		{
			"buffer":0,
			"byteLength":288,
			"byteOffset":660128,
			"target":34962
		}
	],
	"buffers":[
		{
			"byteLength":660416,
			"uri":"data:application/octet-stream;base64,"
		}
	]
}
